<?xml version="1.0" encoding="UTF-8" standalone="no"?>
<!-- Created with Inkscape (http://www.inkscape.org/) -->

<svg
   xmlns:dc="http://purl.org/dc/elements/1.1/"
   xmlns:cc="http://creativecommons.org/ns#"
   xmlns:rdf="http://www.w3.org/1999/02/22-rdf-syntax-ns#"
   xmlns:svg="http://www.w3.org/2000/svg"
   xmlns="http://www.w3.org/2000/svg"
   xmlns:sodipodi="http://sodipodi.sourceforge.net/DTD/sodipodi-0.dtd"
   xmlns:inkscape="http://www.inkscape.org/namespaces/inkscape"
   width="800"
   height="800"
   viewBox="0 0 800.00001 800.00001"
   id="svg2"
   version="1.1"
   inkscape:version="0.91 r13725"
   sodipodi:docname="icon.svg">
  <defs
     id="defs4" />
  <sodipodi:namedview
     id="base"
     pagecolor="#494449"
     bordercolor="#666666"
     borderopacity="1.0"
     inkscape:pageopacity="0"
     inkscape:pageshadow="2"
     inkscape:zoom="0.5"
     inkscape:cx="482.89816"
     inkscape:cy="496.96538"
     inkscape:document-units="px"
     inkscape:current-layer="layer3"
     showgrid="false"
     showguides="true"
     inkscape:guide-bbox="true"
     inkscape:window-width="1276"
     inkscape:window-height="756"
     inkscape:window-x="4"
     inkscape:window-y="0"
     inkscape:window-maximized="1"
     units="px"
     borderlayer="false"
     inkscape:showpageshadow="false"
     showborder="true">
    <sodipodi:guide
       position="62.000001,376.00001"
       orientation="1,0"
       id="guide3433"
       inkscape:label=""
       inkscape:color="rgb(0,0,255)" />
    <sodipodi:guide
       position="738.00001,374.05949"
       orientation="1,0"
       id="guide3435"
       inkscape:label=""
       inkscape:color="rgb(0,0,255)" />
    <sodipodi:guide
       position="323.85491,738.00001"
       orientation="0,1"
       id="guide3437"
       inkscape:label=""
       inkscape:color="rgb(0,0,255)" />
    <sodipodi:guide
       position="330.92598,62.000001"
       orientation="0,1"
       id="guide3439"
       inkscape:label=""
       inkscape:color="rgb(0,0,255)" />
    <sodipodi:guide
       position="400.00001,422.00001"
       orientation="1,0"
       id="guide3441"
       inkscape:label=""
       inkscape:color="rgb(0,0,255)" />
  </sodipodi:namedview>
  <metadata
     id="metadata7">
    <rdf:RDF>
      <cc:Work
         rdf:about="">
        <dc:format>image/svg+xml</dc:format>
        <dc:type
           rdf:resource="http://purl.org/dc/dcmitype/StillImage" />
        <dc:title></dc:title>
      </cc:Work>
    </rdf:RDF>
  </metadata>
  <g
     inkscape:groupmode="layer"
     id="layer5"
     inkscape:label="background-android"
     style="display:inline">
    <rect
       style="fill:#ffffff"
       id="rect3430"
       width="800"
       height="800"
       x="0"
       y="7.3583988e-06"
       ry="61" />
  </g>
  <g
     inkscape:groupmode="layer"
     id="layer3"
     inkscape:label="turm"
     style="display:inline"
     transform="translate(0,-252.36216)">
    <path
       style="fill:none;fill-opacity:1;fill-rule:evenodd;stroke:none;stroke-width:1px;stroke-linecap:butt;stroke-linejoin:miter;stroke-opacity:1"
       d="m 198,193.8622 -40.625,0 -10.625,48.5 34,0 0,-25.5 10,0 2.25,4 -0.125,3 0,1 0,0.75 -0.125,1.25 0.125,1.875 0.125,1.75 0.875,1.5 0,2 -1.375,1 0.75,7.375 4.75,0 z"
       id="path4365"
       inkscape:connector-curvature="0" />
    <path
       style="fill:#e42112;fill-opacity:1;fill-rule:evenodd;stroke:none;stroke-width:1px;stroke-linecap:butt;stroke-linejoin:miter;stroke-opacity:1"
       d="m 384.93332,314.45891 0,1.23695 -0.0221,0 0,28.52885 -20.90502,0 0,31.00288 18.45213,0 0,22.33271 -49.19099,59.54286 -25.83294,0 0,38.44707 27.05941,0 0,161.25485 -46.73802,0 0,-169.93614 -118.06046,0 0,167.45099 -31.97629,0 0,40.93223 247.21431,0 29.50127,0 247.2143,0 0,-40.93223 -31.97629,0 0,-167.45099 -118.06045,0 0,169.93614 -46.73804,0 0,-161.25485 27.05943,0 0,-38.44707 -25.83302,0 -49.19091,-59.54286 0,-22.33271 18.45214,0 0,-31.00288 -20.90505,0 0,-28.52885 -0.0221,0 0,-1.23695 -1.23752,1.23695 -27.02626,0 -1.2375,-1.23695 z m -155.89285,70.8652 0,0.2563 -17.05996,22.18786 -20.75036,0 14.50759,22.70053 -14.50759,22.68933 20.75036,0 17.05996,21.68637 0,0.25628 0.0995,-0.12253 0.0995,0.12253 0,-0.25628 17.04888,-21.68637 20.75035,0 -14.49652,-22.70054 14.49652,-22.68932 -20.75035,0 -17.04888,-22.18786 0,-0.2563 -0.0995,0.13369 -0.0995,-0.13369 z m 341.08806,0 0,0.2563 -17.04886,22.18786 -20.75038,0 14.49653,22.68932 -14.49653,22.70054 20.75038,0 17.04886,21.68637 0,0.25628 0.0995,-0.12253 0.0994,0.12253 0,-0.25628 17.05997,-21.68637 20.75036,0 -14.5076,-22.68933 14.5076,-22.70053 -20.75036,0 -17.05997,-22.18786 0,-0.2563 -0.0994,0.13369 -0.0995,-0.13369 z m -396.2235,327.72513 c -10.00533,137.94 -33.71718,212.5054 -59.52189,277.40967 l 188.56526,0 2.50816,-145.49716 56.01931,0 13.50211,29.52066 c -4.64195,18.49457 -4.02881,36.3311 1.99992,53.48041 l 1.99988,15.1337 -11.00496,4.03418 3.50257,43.32821 28.77207,0 0.43091,0 28.77209,0 3.50257,-43.32821 -11.00499,-4.03418 1.9999,-15.1337 c 6.02873,-17.14931 6.64187,-34.98584 1.99991,-53.48041 l 13.50212,-29.52066 56.01931,0 2.50815,145.49716 188.56527,0 C 660.73799,925.55464 637.02613,850.98924 627.02081,713.04924 l -226.34244,0 -0.43091,0 -226.34243,0 z m 226.77334,24.27178 c 44.46695,0 93.79647,25.30737 93.79647,78.39864 l -50.38425,0 c -6.89977,-5.63873 -17.58137,-11.27802 -31.14763,-16.91674 9.84271,-4.53291 19.14091,-11.46651 19.00457,-27.73759 -0.49671,-16.70159 -13.97731,-28.83814 -31.26916,-28.90777 l 0,-0.011 c -0.0746,-5.6e-4 -0.14627,0.011 -0.22097,0.011 -0.0708,1.4e-4 -0.13924,-0.011 -0.20994,-0.011 l 0,0.011 c -17.29184,0.0697 -30.77228,12.20618 -31.2692,28.90777 -0.13634,16.27108 9.16192,23.20468 19.00462,27.73759 -13.56626,5.63872 -24.24787,11.27801 -31.14762,16.91674 l -50.38427,0 c 0,-53.95022 50.02015,-78.39864 94.22738,-78.39864 z"
       id="path4369"
       inkscape:connector-curvature="0" />
  </g>
</svg>
