<?xml version="1.0" encoding="UTF-8" standalone="no"?>
<!-- Created with Inkscape (http://www.inkscape.org/) -->

<svg
   xmlns:dc="http://purl.org/dc/elements/1.1/"
   xmlns:cc="http://creativecommons.org/ns#"
   xmlns:rdf="http://www.w3.org/1999/02/22-rdf-syntax-ns#"
   xmlns:svg="http://www.w3.org/2000/svg"
   xmlns="http://www.w3.org/2000/svg"
   xmlns:sodipodi="http://sodipodi.sourceforge.net/DTD/sodipodi-0.dtd"
   xmlns:inkscape="http://www.inkscape.org/namespaces/inkscape"
   width="800"
   height="800"
   viewBox="0 0 211.66666 211.66667"
   version="1.1"
   id="svg3879"
   inkscape:version="0.92.2 (5c3e80d, 2017-08-06)"
   sodipodi:docname="icon.svg">
  <defs
     id="defs3873" />
  <sodipodi:namedview
     id="base"
     pagecolor="#ffffff"
     bordercolor="#666666"
     borderopacity="1.0"
     inkscape:pageopacity="0.0"
     inkscape:pageshadow="2"
     inkscape:zoom="1"
     inkscape:cx="378.59043"
     inkscape:cy="328.69212"
     inkscape:document-units="mm"
     inkscape:current-layer="layer1"
     showgrid="false"
     units="px"
     inkscape:window-width="1920"
     inkscape:window-height="1035"
     inkscape:window-x="0"
     inkscape:window-y="23"
     inkscape:window-maximized="0" />
  <metadata
     id="metadata3876">
    <rdf:RDF>
      <cc:Work
         rdf:about="">
        <dc:format>image/svg+xml</dc:format>
        <dc:type
           rdf:resource="http://purl.org/dc/dcmitype/StillImage" />
        <dc:title></dc:title>
      </cc:Work>
    </rdf:RDF>
  </metadata>
  <g
     inkscape:label="Layer 1"
     inkscape:groupmode="layer"
     id="layer1"
     transform="translate(0,-85.333317)">
    <g
       transform="matrix(5.5487068,0,0,5.5487068,-680.58488,-1057.5143)"
       id="g133"
       style="fill:#006600;fill-opacity:1">
      <g
         id="g111"
         style="fill:#006600;fill-opacity:1">
        <g
           id="g109"
           style="fill:#006600;fill-opacity:1">
          <path
             style="fill:#006600;fill-opacity:1"
             inkscape:connector-curvature="0"
             d="m 141.73,208.114 c 9.348,0 16.926,7.578 16.926,16.926 0,9.35 -7.578,16.928 -16.926,16.928 -9.35,0 -16.928,-7.578 -16.928,-16.928 10e-4,-9.348 7.579,-16.926 16.928,-16.926 m 0,-0.717 c -9.729,0 -17.643,7.916 -17.643,17.643 0,9.729 7.914,17.643 17.643,17.643 9.727,0 17.643,-7.914 17.643,-17.643 0,-9.727 -7.916,-17.643 -17.643,-17.643 z"
             id="path107" />
        </g>
      </g>
      <g
         id="g119"
         style="fill:#006600;fill-opacity:1">
        <path
           style="fill:#006600;fill-opacity:1"
           inkscape:connector-curvature="0"
           d="m 131.84,214.863 c 2.578,-3.304 6.586,-5.437 11.102,-5.437 3.533,0 6.76,1.303 9.232,3.451 -2.582,-2.971 -6.387,-4.852 -10.633,-4.852 -7.779,0 -14.086,6.307 -14.086,14.084 0,0.615 0.051,1.218 0.127,1.812 0.277,-3.541 1.854,-6.719 4.258,-9.058 z"
           id="path113" />
        <path
           style="fill:#006600;fill-opacity:1"
           inkscape:connector-curvature="0"
           d="m 149.488,236.923 c -2.232,1.464 -4.895,2.322 -7.758,2.322 -0.613,0 -1.213,-0.052 -1.807,-0.128 -4.25,0.055 -8.473,-1.79 -11.291,-5.397 -2.174,-2.783 -3.133,-6.129 -2.963,-9.4 -0.752,3.865 0.107,8.021 2.723,11.367 4.789,6.131 13.641,7.217 19.77,2.428 0.475,-0.373 0.912,-0.774 1.326,-1.192 z"
           id="path115" />
        <path
           style="fill:#006600;fill-opacity:1"
           inkscape:connector-curvature="0"
           d="m 150.615,213.544 c -0.506,-0.246 -1.02,-0.455 -1.537,-0.637 2.936,1.785 5.186,4.593 6.221,7.937 1.756,3.729 1.875,8.187 -0.072,12.179 -1.549,3.176 -4.135,5.504 -7.15,6.783 3.803,-1.018 7.162,-3.611 9.023,-7.428 3.41,-6.992 0.505,-15.426 -6.485,-18.834 z"
           id="path117" />
      </g>
      <g
         id="g123"
         style="fill:#006600;fill-opacity:1">
        <path
           style="fill:#006600;fill-opacity:1"
           inkscape:connector-curvature="0"
           d="m 141.73,210.954 c 7.779,0 14.084,6.307 14.084,14.086 0,7.779 -6.305,14.086 -14.084,14.086 -7.779,0 -14.086,-6.307 -14.086,-14.086 0,-7.779 6.307,-14.086 14.086,-14.086 m 0,-0.238 c -7.898,0 -14.324,6.426 -14.324,14.324 0,7.898 6.426,14.324 14.324,14.324 7.898,0 14.324,-6.426 14.324,-14.324 0,-7.898 -6.425,-14.324 -14.324,-14.324 z"
           id="path121" />
      </g>
      <g
         id="g131"
         style="fill:#006600;fill-opacity:1">
        <path
           style="clip-rule:evenodd;fill:#006600;fill-opacity:1;fill-rule:evenodd"
           inkscape:connector-curvature="0"
           d="m 140.348,212.281 c 0.355,0 0.711,0 1.068,0 0,0.033 0.043,0.026 0.07,0.034 3.309,0.398 5.668,2.033 7.404,4.058 1.746,2.038 2.922,4.786 3.451,7.902 -1.076,-2.612 -2.42,-4.959 -4.52,-6.549 -0.59,1.047 -1.184,2.091 -1.816,3.097 -0.041,-0.376 -0.359,-0.657 -0.426,-0.891 0.666,-0.815 1.389,-1.577 1.992,-2.456 -0.73,-0.467 -1.443,-0.952 -2.312,-1.282 -0.65,0.951 -1.326,1.878 -1.957,2.85 1.695,0.266 3.014,1.898 2.24,3.845 0.65,1.256 1.402,2.628 2.066,4.021 0.305,0.641 0.699,1.347 0.426,2.135 0.324,0.316 0.602,0.681 0.783,1.139 0.637,-0.095 0.957,0.634 1.209,1.175 0.227,0.479 0.412,1 0.5,1.423 -0.416,-0.709 -0.73,-1.523 -1.281,-2.099 -0.268,-0.007 -0.266,0.445 -0.428,0.428 0.09,-0.459 -0.521,-1.61 -0.926,-1.603 -0.26,0.005 -0.789,0.854 -0.961,1.245 -0.402,0.916 0.221,2.176 1.176,1.78 -0.16,0.578 -0.141,1.117 0.07,1.565 0.23,0.49 1.27,1.229 0.783,1.922 -0.295,0.419 -1.004,-0.006 -1.316,-0.247 -0.221,-0.17 -0.492,-0.401 -0.713,-0.642 -0.568,-0.625 -1.416,-1.355 -0.926,-2.207 -0.445,-0.538 -0.857,-1.11 -1.139,-1.814 -0.932,0.069 -1.568,-0.808 -2.1,-1.389 -0.508,-0.556 -0.938,-1.12 -1.424,-1.531 -1.412,1.857 -3.037,3.724 -4.377,5.589 1.098,0.521 2.51,1.078 4.129,1.14 1.639,0.06 3.094,-0.477 4.199,-0.962 0.119,0.651 0.527,1.058 0.961,1.53 0.471,0.515 0.898,0.908 1.531,1.21 -1.666,0.837 -4.467,0.766 -6.549,0.392 -2.082,-0.375 -3.896,-1.206 -5.305,-2.135 -0.352,0.454 -0.764,1.039 -1.139,1.352 1.463,-2.386 3.514,-4.94 5.34,-7.367 0.561,-0.744 1.756,-1.741 1.602,-2.99 -0.166,-1.328 -1.85,-2.287 -3.168,-1.494 -0.135,0.081 -0.273,0.219 -0.393,0.32 -0.09,0.079 -0.201,0.284 -0.355,0.214 -0.082,-1.365 1.051,-1.952 2.277,-1.78 1.246,0.175 2.883,2.074 2.457,3.56 0.248,0.043 0.641,-0.567 0.854,-0.676 0.527,1.261 1.164,2.357 2.1,3.346 0.244,0.256 0.662,0.8 1.068,0.746 0.299,-0.038 0.539,-0.528 0.711,-0.783 0.229,-0.335 0.48,-0.593 0.5,-0.961 0.023,-0.438 -0.344,-1.081 -0.535,-1.458 -0.65,-1.292 -1.465,-2.63 -2.135,-3.845 0.277,-0.678 0.426,-1.548 0.105,-2.242 -0.447,-0.973 -2.104,-1.974 -2.74,-1.032 -0.109,-1.663 -0.443,-3.706 -1.744,-4.164 -0.35,-0.124 -0.938,-0.079 -1.244,0.178 0.352,0.039 0.721,0.251 0.746,0.498 -1.033,0.072 -1.928,0.584 -2.312,1.318 -0.516,0.982 0.043,1.751 0.711,2.525 0.627,0.728 1.369,1.346 2.635,1.068 -1.277,0.868 -3.344,0.771 -4.484,0 -1.047,-0.708 -2.133,-2.077 -2.1,-3.667 0.039,-1.983 1.963,-3.376 4.021,-3.237 2.521,0.169 3.932,2.038 3.914,4.769 0.637,-0.714 1.281,-1.506 1.887,-2.278 0.188,-0.238 0.42,-0.491 0.498,-0.782 -0.771,-0.192 -1.658,-0.448 -2.633,-0.32 -0.525,-0.805 -1.383,-1.596 -2.492,-1.922 -1.223,-0.36 -2.684,-0.129 -3.594,0.462 0.88,-1.153 2.22,-1.843 4.06,-2.031 z"
           id="path125" />
        <path
           style="clip-rule:evenodd;fill:#006600;fill-opacity:1;fill-rule:evenodd"
           inkscape:connector-curvature="0"
           d="m 130.098,227.442 c 0,-0.013 0,-0.023 0,-0.034 0.955,1.381 1.969,2.703 3.238,3.771 -0.111,-0.015 -0.389,0.719 -0.57,0.711 -0.021,0 -0.324,-0.408 -0.391,-0.497 -0.854,-1.133 -1.713,-2.7 -2.277,-3.951 z"
           id="path127" />
        <path
           style="clip-rule:evenodd;fill:#006600;fill-opacity:1;fill-rule:evenodd"
           inkscape:connector-curvature="0"
           d="m 139.316,224.596 c -2.096,2.824 -4.328,5.713 -6.586,8.541 -0.34,0.427 -0.695,0.94 -1.066,1.176 -0.053,-0.016 0.002,-0.032 0,-0.072 1.76,-2.527 3.604,-5.047 5.445,-7.546 0.59,-0.803 1.168,-1.785 2.207,-2.099 z"
           id="path129" />
      </g>
    </g>
  </g>
</svg>
