<?xml version="1.0" encoding="UTF-8" standalone="no"?>
<!-- Created with Inkscape (http://www.inkscape.org/) -->

<svg
   xmlns:dc="http://purl.org/dc/elements/1.1/"
   xmlns:cc="http://creativecommons.org/ns#"
   xmlns:rdf="http://www.w3.org/1999/02/22-rdf-syntax-ns#"
   xmlns:svg="http://www.w3.org/2000/svg"
   xmlns="http://www.w3.org/2000/svg"
   xmlns:sodipodi="http://sodipodi.sourceforge.net/DTD/sodipodi-0.dtd"
   xmlns:inkscape="http://www.inkscape.org/namespaces/inkscape"
   width="800"
   height="800"
   viewBox="0 0 800.00001 800.00001"
   id="svg2"
   version="1.1"
   inkscape:version="0.92.2 (5c3e80d, 2017-08-06)"
   sodipodi:docname="icon.svg"
   inkscape:export-filename="/Users/arne/Desktop/tfvhh-app.png"
   inkscape:export-xdpi="122.88"
   inkscape:export-ydpi="122.88">
  <defs
     id="defs4" />
  <sodipodi:namedview
     id="base"
     pagecolor="#494449"
     bordercolor="#666666"
     borderopacity="1.0"
     inkscape:pageopacity="0"
     inkscape:pageshadow="2"
     inkscape:zoom="0.5"
     inkscape:cx="96"
     inkscape:cy="496.96538"
     inkscape:document-units="px"
     inkscape:current-layer="layer5"
     showgrid="false"
     showguides="true"
     inkscape:guide-bbox="true"
     inkscape:window-width="1920"
     inkscape:window-height="1155"
     inkscape:window-x="0"
     inkscape:window-y="23"
     inkscape:window-maximized="0"
     units="px"
     borderlayer="false"
     inkscape:showpageshadow="false"
     showborder="true">
    <sodipodi:guide
       position="62.000001,376.00001"
       orientation="1,0"
       id="guide3433"
       inkscape:label=""
       inkscape:color="rgb(0,0,255)"
       inkscape:locked="false" />
    <sodipodi:guide
       position="738.00001,374.05949"
       orientation="1,0"
       id="guide3435"
       inkscape:label=""
       inkscape:color="rgb(0,0,255)"
       inkscape:locked="false" />
    <sodipodi:guide
       position="323.85491,738.00001"
       orientation="0,1"
       id="guide3437"
       inkscape:label=""
       inkscape:color="rgb(0,0,255)"
       inkscape:locked="false" />
    <sodipodi:guide
       position="330.92598,62.000001"
       orientation="0,1"
       id="guide3439"
       inkscape:label=""
       inkscape:color="rgb(0,0,255)"
       inkscape:locked="false" />
    <sodipodi:guide
       position="400.00001,422.00001"
       orientation="1,0"
       id="guide3441"
       inkscape:label=""
       inkscape:color="rgb(0,0,255)"
       inkscape:locked="false" />
  </sodipodi:namedview>
  <metadata
     id="metadata7">
    <rdf:RDF>
      <cc:Work
         rdf:about="">
        <dc:format>image/svg+xml</dc:format>
        <dc:type
           rdf:resource="http://purl.org/dc/dcmitype/StillImage" />
        <dc:title></dc:title>
      </cc:Work>
    </rdf:RDF>
  </metadata>
  <g
     inkscape:groupmode="layer"
     id="layer5"
     inkscape:label="background-android"
     style="display:none">
    <rect
       style="fill:#ffffff"
       id="rect3430"
       width="720"
       height="720"
       x="40"
       y="40"
       ry="54.900002" />
  </g>
  <g
     inkscape:groupmode="layer"
     id="layer1"
     inkscape:label="background-ios"
     style="display:inline">
    <rect
       style="opacity:1;fill:#ffffff;fill-opacity:1"
       id="rect4151"
       width="836"
       height="836"
       x="-10"
       y="-8"
       ry="0"
       inkscape:export-filename="/Users/arne/Desktop/lt-ios-icons/app_icon20@3x.png"
       inkscape:export-xdpi="6.46"
       inkscape:export-ydpi="6.46" />
  </g>
  <g
     inkscape:groupmode="layer"
     id="layer3"
     inkscape:label="turm"
     style="display:inline"
     transform="translate(0,-252.36216)">
    <path
       style="fill:none;fill-opacity:1;fill-rule:evenodd;stroke:none;stroke-width:1px;stroke-linecap:butt;stroke-linejoin:miter;stroke-opacity:1"
       d="m 198,193.8622 -40.625,0 -10.625,48.5 34,0 0,-25.5 10,0 2.25,4 -0.125,3 0,1 0,0.75 -0.125,1.25 0.125,1.875 0.125,1.75 0.875,1.5 0,2 -1.375,1 0.75,7.375 4.75,0 z"
       id="path4365"
       inkscape:connector-curvature="0" />
    <path
       style="opacity:1;fill:#ef473a;fill-opacity:1;fill-rule:evenodd;stroke:none;stroke-width:1px;stroke-linecap:butt;stroke-linejoin:miter;stroke-opacity:1"
       d="m 385.64218,332.36216 0,1.17108 -0.0209,0 0,27.00956 -19.79174,0 0,29.35184 17.46948,0 0,21.14339 -46.57136,56.37194 -24.45722,0 0,36.39959 25.61838,0 0,152.66732 -44.24901,0 0,-160.88629 -111.77322,0 0,158.53348 -30.27341,0 0,38.75241 234.04905,0 27.9302,0 234.04904,0 0,-38.75241 -30.27341,0 0,-158.53348 -111.77321,0 0,160.88629 -44.24903,0 0,-152.66732 25.61839,0 0,-36.39959 -24.45729,0 -46.57128,-56.37194 0,-21.14339 17.46948,0 0,-29.35184 -19.79176,0 0,-27.00956 -0.0209,0 0,-1.17108 -1.17162,1.17108 -25.58699,0 -1.1716,-1.17108 z m -147.59086,67.09131 0,0.24265 -16.15144,21.00626 -19.64531,0 13.73499,21.49163 -13.73499,21.48102 19.64531,0 16.15144,20.53148 0,0.24263 0.0942,-0.11601 0.0942,0.11601 0,-0.24263 16.14095,-20.53148 19.6453,0 -13.72451,-21.49163 13.72451,-21.48102 -19.6453,0 -16.14095,-21.00626 0,-0.24265 -0.0942,0.12657 -0.0942,-0.12657 z m 322.92361,0 0,0.24265 -16.14094,21.00626 -19.64533,0 13.72453,21.48102 -13.72453,21.49163 19.64533,0 16.14094,20.53148 0,0.24263 0.0942,-0.11601 0.0941,0.11601 0,-0.24263 16.15145,-20.53148 19.64532,0 -13.73501,-21.48102 13.73501,-21.49163 -19.64532,0 -16.15145,-21.00626 0,-0.24265 -0.0941,0.12657 -0.0942,-0.12657 z M 185.85209,709.72579 C 176.37958,840.31987 153.93049,910.91433 129.5,972.36216 l 178.52332,0 2.37459,-137.74879 53.03604,0 12.78306,27.94855 c -4.39475,17.50966 -3.81426,34.39631 1.89341,50.63234 l 1.89338,14.32777 -10.4189,3.81934 3.31605,41.02079 27.23983,0 0.40796,0 27.23985,0 3.31604,-41.02079 -10.41893,-3.81934 1.8934,-14.32777 c 5.70767,-16.23603 6.28816,-33.12268 1.89341,-50.63234 l 12.78307,-27.94855 53.03603,0 2.37458,137.74879 178.52333,0 C 646.75903,910.91433 624.30993,840.31987 614.83744,709.72579 l -214.2887,0 -0.40796,0 -214.28869,0 z m 214.69665,22.9792 c 42.09889,0 88.80139,23.95964 88.80139,74.22356 l -47.70106,0 c -6.53233,-5.33844 -16.64509,-10.67741 -29.48889,-16.01585 9.31855,-4.29151 18.12158,-10.85587 17.9925,-26.26044 -0.47026,-15.81215 -13.23296,-27.30238 -29.60394,-27.3683 l 0,-0.0104 c -0.0706,-5.3e-4 -0.13848,0.0104 -0.2092,0.0104 -0.067,1.3e-4 -0.13183,-0.0104 -0.19876,-0.0104 l 0,0.0104 c -16.37098,0.066 -29.13352,11.55615 -29.60398,27.3683 -0.12908,15.40457 8.67401,21.96893 17.99254,26.26044 -12.8438,5.33844 -22.95656,10.67741 -29.48887,16.01585 l -47.70109,0 c 0,-51.07713 47.35636,-74.22356 89.20936,-74.22356 z"
       id="path4369"
       inkscape:connector-curvature="0" />
  </g>
</svg>
